<svg version="1.1" xmlns="http://www.w3.org/2000/svg" xmlns:xlink="http://www.w3.org/1999/xlink" width="2000.000000pt" height="1769.000000pt" viewBox="0,0,256,226.42188"><g fill="#ffffff" fill-rule="nonzero" stroke="none" stroke-width="1" stroke-linecap="butt" stroke-linejoin="miter" stroke-miterlimit="10" stroke-dasharray="" stroke-dashoffset="0" font-family="none" font-weight="none" font-size="none" text-anchor="none" style="mix-blend-mode: normal"><g transform="translate(20.93441,-28.16506) scale(0.128,0.128)"><g transform="translate(0,1769) scale(0.1,-0.1)"><path d="M5755,13068c-142,-157 -207,-314 -240,-584c-14,-114 -20,-254 -10,-254c2,0 38,11 79,24c206,68 471,84 673,41c244,-52 864,-268 1486,-519c292,-118 741,-304 822,-341l60,-27l-50,-14c-61,-17 -369,-38 -446,-31c-30,3 -107,22 -170,42c-88,29 -131,38 -189,39c-71,1 -75,0 -78,-22c-2,-12 8,-48 23,-79c17,-37 22,-60 16,-66c-6,-6 -92,-19 -193,-30c-204,-21 -540,-27 -733,-13c-108,8 -122,7 -134,-8c-27,-32 -3,-67 73,-106c57,-29 65,-36 45,-38c-59,-9 -390,-96 -500,-133c-156,-51 -358,-141 -533,-235c-307,-167 -455,-277 -727,-542c-200,-194 -202,-177 28,-188c140,-7 142,-7 197,20c36,18 75,49 108,87c32,36 60,59 73,59c11,0 40,-14 65,-30c58,-39 136,-68 228,-86c136,-26 170,-17 335,89c82,54 160,97 172,97c16,0 -3,-30 -80,-125c-103,-127 -145,-191 -145,-222c0,-21 5,-23 48,-23c27,0 73,7 103,16c69,20 322,116 559,212c386,155 517,188 535,132c3,-9 -2,-95 -11,-191c-9,-99 -13,-201 -9,-237c6,-56 23,-92 44,-92c25,0 77,64 195,244c179,271 215,307 260,257c28,-31 29,-81 6,-222c-19,-115 -40,-191 -75,-272c-7,-16 -4,-17 21,-11c53,13 168,64 237,105c38,23 121,92 192,159c124,119 161,141 181,108c4,-7 11,-70 14,-141l7,-128l52,-105c29,-57 57,-104 61,-104c19,0 145,107 206,175l68,76l36,-109c39,-122 71,-170 138,-213c50,-31 109,-52 124,-43c6,4 7,31 3,63c-7,64 11,138 37,155c23,14 53,-14 74,-73c10,-25 31,-71 48,-101c27,-48 31,-65 31,-131v-76l70,-61c39,-34 72,-62 75,-62c3,0 4,51 2,113c-3,101 -1,116 17,138l20,24l58,-60c59,-60 122,-167 141,-238c14,-50 2,-83 -45,-123l-36,-31l32,-47c33,-48 68,-139 91,-236c7,-30 16,-60 21,-66c12,-15 -25,-120 -67,-190c-60,-100 -101,-147 -280,-318l-173,-167l6,-47c11,-87 51,-228 81,-289c37,-72 225,-309 412,-516c9,-11 13,553 4,590c-7,25 -10,19 -25,-43c-22,-90 -49,-148 -72,-152c-28,-6 -22,102 13,248c33,134 61,185 108,196c61,15 81,33 116,107c42,89 63,173 77,302c17,173 41,319 55,342c8,13 52,36 121,63c122,47 163,69 250,134c57,43 62,50 79,112c18,66 18,67 73,92c31,14 81,28 112,30l55,4l50,111l49,112l7,-109c9,-126 31,-176 101,-227c63,-46 93,-34 72,30c-7,23 -7,23 33,-5c129,-94 150,-114 167,-157c19,-50 17,-83 -5,-80c-8,0 -76,17 -150,36c-165,43 -293,59 -375,46c-146,-24 -394,-131 -501,-218c-64,-51 -104,-110 -104,-154c0,-29 25,-87 38,-87c4,0 34,38 67,85c48,66 69,88 105,103c75,33 150,52 251,61c105,10 155,27 211,71c35,29 38,29 75,16c21,-7 68,-31 103,-53c36,-22 106,-61 156,-86c110,-58 148,-93 188,-177c30,-64 31,-68 31,-215v-150h24c32,0 59,45 67,111c12,102 44,133 114,110c47,-15 70,-62 70,-142v-61l-197,-184c-283,-264 -260,-248 -391,-263c-114,-13 -177,-36 -226,-81c-88,-81 76,-97 263,-25c80,31 197,107 208,136c3,8 22,23 43,34c20,10 94,64 164,119c70,56 139,104 154,108c38,9 54,-18 107,-185c25,-81 55,-170 66,-199c30,-77 39,-157 39,-364c0,-221 1,-225 104,-393c99,-161 118,-211 118,-308c0,-55 -6,-89 -21,-123c-12,-26 -21,-53 -21,-61c0,-21 138,-324 171,-375c55,-86 129,-143 221,-170c57,-16 38,17 -71,122c-61,59 -111,110 -111,114c0,3 16,27 35,52c23,30 35,57 35,77c0,59 -180,543 -293,791c-58,126 -77,199 -77,295c-1,71 -14,201 -25,245c-16,58 37,-71 205,-497c102,-258 187,-468 190,-468c8,0 130,217 164,290c14,30 37,108 52,172l26,117l31,-5c128,-23 218,-50 269,-81c88,-53 119,-96 183,-259c31,-79 60,-144 63,-144c4,0 33,55 65,123c52,110 73,141 217,316c155,189 187,241 138,227c-13,-4 -52,-11 -87,-16l-64,-8l-69,56c-37,31 -68,57 -68,58c0,19 78,178 102,208c39,48 41,88 9,180c-23,65 -27,116 -10,133c7,7 1,14 -22,22c-51,18 -71,14 -200,-39l-122,-49l-131,19c-72,11 -148,25 -169,30c-37,11 -117,73 -117,91c0,5 30,9 68,9c100,0 172,11 172,25c0,7 -21,36 -46,64l-46,51h-119c-141,0 -148,4 -181,115c-12,38 -32,96 -44,128c-12,31 -20,57 -18,57c3,0 20,-16 40,-35c65,-65 132,-112 226,-158c51,-25 135,-78 187,-117c52,-39 98,-67 103,-62c12,12 14,222 4,402c-7,140 -6,164 13,247c21,92 27,229 12,267c-6,16 -11,14 -40,-23c-18,-22 -36,-41 -41,-41c-4,0 -15,21 -24,47c-15,45 -15,48 5,69c11,12 38,30 61,40l41,18l-6,110c-5,109 -5,111 -36,137c-47,39 -100,51 -266,60c-166,8 -209,15 -225,35c-17,19 -1,41 77,110c85,76 100,84 176,93l62,7l-72,17c-88,21 -155,22 -191,3c-30,-16 -114,-101 -156,-159c-28,-39 -147,-281 -161,-327c-15,-52 -55,-110 -77,-110c-20,0 -21,3 -15,93c8,104 37,229 69,293c12,24 55,81 96,126c40,46 87,107 104,136l30,53l67,-7c57,-5 74,-3 114,16c32,15 57,20 77,16c110,-21 334,-254 390,-402c18,-49 19,-64 10,-151c-6,-53 -9,-98 -7,-99c2,-2 30,36 63,84c69,101 162,202 188,202c26,0 69,-50 101,-117c24,-52 55,-173 70,-275c9,-59 34,-50 104,40c41,52 68,98 82,142c12,36 40,102 62,148c36,76 39,87 29,118c-8,28 -8,36 4,41c33,12 72,-12 149,-91c94,-98 105,-107 296,-224l147,-89l-1,136c-1,81 4,160 12,195c7,33 14,92 14,132l1,73l72,-77c39,-42 105,-104 145,-136c65,-52 151,-141 193,-201c14,-19 16,-18 38,30c21,46 23,64 23,206v156l60,-27c292,-132 383,-176 540,-259c258,-136 360,-181 416,-181c50,0 93,25 104,60c4,11 -14,68 -45,145c-29,70 -50,128 -48,130c2,2 92,-52 201,-121c206,-130 263,-154 358,-154c74,0 76,7 49,176c-12,80 -20,147 -18,150c3,3 71,-58 151,-135c186,-178 292,-235 341,-185c34,33 20,55 -146,219c-326,322 -787,674 -1065,814c-100,50 -348,144 -416,156c-20,4 -39,11 -42,15c-3,5 16,28 42,52c100,92 113,111 113,173c0,60 -9,69 -39,39c-38,-39 -92,-60 -215,-83c-161,-31 -208,-28 -501,32c-218,45 -260,56 -257,70c5,31 -26,86 -53,93c-14,3 -78,1 -142,-6c-86,-9 -170,-10 -313,-4c-389,18 -498,7 -633,-64c-74,-38 -114,-80 -153,-158c-35,-71 -39,-133 -19,-252c16,-99 16,-103 -2,-135c-11,-18 -42,-44 -73,-62l-55,-30h-300c-418,0 -442,-9 -505,-183c-42,-116 -85,-286 -116,-457c-17,-91 -36,-163 -55,-205c-33,-72 -107,-190 -119,-190c-9,0 -17,50 -26,170c-4,47 -13,103 -21,125c-46,131 -53,255 -22,377c20,78 23,178 5,206c-6,10 -108,-16 -122,-31c-4,-4 3,-21 16,-38c18,-26 20,-33 9,-40c-8,-4 -69,-43 -136,-86c-67,-43 -142,-90 -166,-104c-51,-30 -63,-59 -38,-90c16,-20 19,-21 48,-5c17,8 41,28 52,42c12,15 23,25 26,22c3,-2 19,-60 36,-129c34,-131 41,-235 25,-338c-9,-52 -9,-53 12,-42c40,21 46,79 28,256c-10,88 -20,176 -23,196c-5,35 -4,37 32,49c20,7 39,9 43,5c4,-3 7,-133 7,-288c0,-270 -1,-285 -24,-357c-26,-82 -30,-170 -11,-254c6,-27 9,-51 6,-53c-7,-7 -151,103 -181,138c-29,35 -38,64 -33,105c2,23 10,30 41,39l38,11l-76,68c-42,38 -74,73 -72,79c2,6 27,19 57,29c75,25 79,33 24,52c-36,12 -66,35 -124,96c-60,63 -83,80 -105,80c-26,0 -27,-2 -22,-37c3,-21 9,-49 13,-62c7,-23 6,-24 -35,-17c-62,10 -118,42 -136,77c-10,19 -15,49 -13,84l3,54l59,-27c43,-19 61,-23 64,-14c2,7 22,36 43,65c41,53 46,89 18,124c-16,19 -20,18 -85,-27c-53,-36 -65,-40 -121,-40c-79,0 -125,-20 -238,-104c-49,-37 -127,-90 -175,-118c-160,-95 -430,-292 -430,-314c0,-22 37,-34 135,-42l90,-8l-95,-47c-152,-76 -207,-72 -230,13c-9,33 -7,49 11,102c15,42 20,73 15,91l-6,27l-35,-34c-40,-40 -70,-52 -90,-36c-18,15 -20,63 -4,91c14,27 97,79 126,79c25,0 103,71 103,94c0,8 -13,68 -29,133c-25,101 -30,148 -36,320l-8,202l-76,-53c-165,-116 -265,-149 -448,-150c-139,-1 -162,8 -198,80c-17,33 -20,59 -20,174l1,135l56,170c31,94 64,189 72,213c21,55 6,97 -34,97c-20,0 -30,-11 -57,-65c-17,-36 -46,-110 -63,-165c-18,-55 -41,-127 -52,-160c-43,-133 -43,-131 -30,-207c8,-45 29,-106 55,-160c24,-49 39,-88 35,-88c-13,0 -156,59 -208,85c-59,30 -66,48 -63,155c5,149 42,289 127,474c20,44 35,84 33,90c-6,18 -130,-118 -169,-185c-21,-35 -38,-58 -38,-52c0,23 264,622 296,670c18,29 18,90 -1,127c-8,15 -15,30 -15,31c0,11 86,15 115,5c69,-23 81,-80 43,-196c-18,-56 -30,-73 -81,-117c-54,-47 -106,-122 -93,-134c8,-9 128,81 173,130c48,52 81,114 113,212c12,39 23,71 24,72c1,1 32,-9 69,-22c78,-29 123,-31 155,-9c38,27 28,50 -32,73c-30,11 -302,119 -603,240c-1449,580 -2362,977 -2668,1161c-56,34 -112,82 -186,157c-121,124 -154,164 -237,286l-60,87zM12451,9256c24,-8 61,-17 82,-21c21,-3 41,-13 44,-22c7,-19 -6,-71 -49,-194c-68,-194 -127,-260 -493,-552c-155,-124 -243,-201 -249,-218c-14,-41 -1,-72 63,-142c60,-67 80,-102 64,-118c-10,-10 -90,10 -153,40c-63,29 -80,27 -80,-6c0,-31 42,-128 67,-155c22,-24 79,-34 109,-18c20,11 27,11 44,-5c29,-26 25,-40 -17,-65c-32,-19 -49,-22 -103,-18c-69,5 -150,35 -187,70c-38,36 -47,111 -33,282c15,182 26,212 138,364c43,59 140,201 216,316c207,316 299,431 369,461c42,18 112,19 168,1zM12118,8131c28,-36 52,-73 52,-82c0,-9 -12,-25 -27,-34c-24,-16 -30,-16 -52,-4c-14,8 -35,28 -46,45c-29,43 -70,167 -62,188c6,16 11,14 45,-15c20,-18 61,-62 90,-98zM12201,7751c44,-43 38,-42 230,-59c58,-6 119,-17 136,-26c30,-15 53,-58 53,-97c0,-17 -2,-17 -35,2c-46,27 -57,18 -40,-31c16,-45 8,-55 -32,-39c-20,8 -54,7 -124,-2c-85,-10 -99,-10 -131,5c-80,38 -218,189 -218,237c0,21 12,29 54,40c55,13 65,10 107,-30zM12964,7758c8,-13 25,-50 37,-83c12,-33 26,-65 31,-72c13,-17 -28,-36 -59,-28c-37,9 -82,-4 -94,-27c-10,-18 -5,-26 32,-60l44,-40l-28,-14c-29,-16 -34,-41 -16,-75c16,-32 1,-58 -49,-83c-46,-23 -161,-56 -195,-56c-10,0 -41,12 -70,27c-47,25 -62,28 -152,28c-91,0 -106,3 -167,32c-168,80 -330,227 -363,331l-7,23l53,-26c29,-15 84,-60 124,-100c40,-40 81,-77 91,-83c11,-6 95,-29 188,-52c183,-46 193,-46 341,-12c73,17 80,21 83,45c5,39 -14,65 -52,72c-52,10 -61,41 -36,125c11,37 26,72 33,77c6,6 43,15 82,21c39,6 80,20 95,31c32,26 37,25 54,-1z"></path><path d="M11120,11215c0,-20 12,-58 26,-86c36,-73 27,-86 -36,-54c-42,21 -50,23 -50,9c0,-25 58,-105 116,-159c29,-27 56,-62 60,-77l6,-28l-58,-1c-33,0 -77,-3 -99,-7c-39,-7 -40,-9 -57,-71c-9,-35 -19,-65 -21,-68c-3,-2 -30,26 -61,62c-46,54 -55,71 -49,88c17,46 7,123 -21,171c-25,43 -27,51 -15,78c7,17 35,47 62,66l50,36l-44,19c-24,10 -55,19 -69,20c-22,2 -25,-3 -30,-39c-6,-39 -33,-88 -64,-114c-13,-10 -21,-9 -42,5c-36,23 -48,8 -49,-62v-57l65,-1h65l9,-37c12,-49 -1,-64 -65,-71c-57,-7 -81,-23 -99,-68c-13,-31 -15,-32 -72,-29l-38,2v-55c0,-52 -2,-57 -34,-76c-49,-31 -65,-27 -84,19c-19,45 -27,49 -42,20c-11,-21 0,-54 43,-120c19,-31 22,-47 21,-142l-1,-107l-35,-39c-67,-74 -158,-430 -129,-504c14,-36 43,-36 66,-1c13,19 18,50 20,112c3,103 21,245 37,284c6,15 25,35 42,44c57,28 66,42 66,98c0,185 46,194 57,12c4,-64 11,-98 22,-111c21,-24 69,-48 81,-41c18,11 10,75 -16,126c-23,47 -24,53 -12,91c21,61 44,73 95,47c77,-38 93,-60 93,-130c0,-45 5,-68 17,-82c17,-18 16,-20 -4,-57c-13,-21 -25,-56 -29,-78c-6,-36 -3,-42 20,-58c15,-9 46,-18 70,-18c35,-1 52,6 97,40c64,49 77,54 107,43c36,-13 26,-36 -44,-107c-137,-138 -173,-248 -45,-139c28,24 68,65 88,91c36,46 39,48 78,43c37,-6 43,-3 57,21c41,68 97,91 83,33c-9,-37 -87,-160 -124,-195c-42,-40 -39,-50 11,-42c46,8 88,39 88,67c0,44 42,78 120,94c43,9 87,48 95,86c9,42 -29,138 -68,171c-28,24 -32,32 -31,75c1,26 4,57 5,68c4,21 -18,25 -53,11c-14,-7 -17,2 -20,64l-3,72l37,30c35,28 58,75 58,121c0,10 -20,39 -43,65c-59,64 -63,78 -27,97c16,8 31,18 34,23c2,4 -1,66 -9,137c-15,146 1,118 -134,233c-56,48 -97,72 -123,72c-14,0 -18,-8 -18,-35z"></path><path d="M9754,11176c7,-43 6,-44 -46,-86c-29,-24 -89,-60 -134,-80c-134,-63 -183,-137 -189,-284c-5,-131 -20,-186 -83,-316l-55,-115l-5,-124c-4,-118 -4,-124 14,-116c125,51 119,50 343,50c163,0 215,3 219,13c6,20 -33,91 -99,177c-57,75 -60,83 -57,125c6,65 31,110 110,197c78,88 74,98 -26,69c-97,-29 -163,-126 -151,-223c6,-51 5,-53 -20,-63c-62,-24 -135,-4 -135,35c0,8 11,50 25,94c30,95 39,104 207,202c88,52 112,70 110,85c-14,83 -13,130 2,143c14,12 20,11 41,-9c13,-12 27,-35 30,-51c9,-41 18,-42 60,-9c35,28 40,29 60,16c12,-8 78,-33 146,-56c68,-23 148,-54 178,-71c61,-33 71,-29 71,31v35l-213,88l-212,88l-18,42c-24,58 -71,114 -118,137c-57,29 -62,27 -55,-24z"></path><path d="M10564,11075c-14,-34 -11,-80 7,-90c19,-12 79,51 79,84c0,9 -50,41 -65,41c-3,0 -13,-16 -21,-35z"></path><path d="M10424,10924c-8,-43 9,-84 34,-84c17,0 62,63 62,87c0,12 -45,33 -70,33c-14,0 -21,-10 -26,-36z"></path><path d="M10417,10803c-4,-3 -7,-26 -7,-51v-44l31,6c17,3 35,6 40,6c16,0 9,23 -17,57c-25,33 -35,39 -47,26z"></path><path d="M9960,10131l-45,-6l63,-27c34,-15 62,-32 62,-37c0,-6 -13,-32 -30,-58c-34,-53 -38,-98 -14,-148c19,-40 36,-52 136,-93c83,-35 101,-39 76,-19c-8,6 -39,38 -67,70c-60,67 -63,91 -22,156c31,49 47,116 36,151c-6,18 -14,20 -78,18c-40,0 -92,-4 -117,-7z"></path><path d="M0,8171v-158l223,-6c415,-10 616,-63 798,-210c129,-105 209,-230 253,-398c56,-213 56,-198 56,-2264c0,-1045 5,-2042 10,-2215c19,-651 88,-1125 216,-1478c201,-555 643,-1002 1164,-1175c590,-196 1333,-85 1888,282c204,135 411,308 715,598c144,137 254,249 590,601c38,39 71,72 73,72c2,0 4,-371 4,-825v-825h191h191l302,125c1616,670 2031,844 2034,854c4,12 -94,288 -107,303c-4,4 -52,-10 -107,-32c-266,-104 -516,-130 -677,-70c-202,76 -330,300 -367,643c-32,303 -34,424 -39,3372l-6,2960l-1337,3l-1338,2v-158v-159l130,-6c344,-18 637,-85 791,-183c195,-123 298,-366 329,-774c6,-85 10,-982 10,-2421v-2285l-162,-160c-526,-517 -913,-772 -1371,-905c-166,-48 -259,-62 -417,-62c-288,1 -533,73 -758,225c-306,207 -435,476 -510,1068c-14,111 -16,444 -19,2973l-4,2847h-1374h-1375z"></path><path d="M9905,8213c-45,-112 -56,-164 -64,-308c-6,-103 -16,-175 -31,-230c-21,-74 -22,-87 -11,-167c6,-48 13,-95 16,-105c3,-10 -14,21 -37,69c-24,48 -46,88 -50,88c-5,0 -8,-60 -8,-134c0,-105 7,-175 31,-313c16,-98 33,-194 36,-213c8,-49 1,-38 -42,65c-21,50 -41,94 -45,98c-4,5 -5,-34 -3,-85c10,-234 19,-972 12,-1048c-9,-112 -30,-197 -73,-298c-145,-344 -605,-745 -956,-832c-120,-30 -300,-37 -413,-16c-74,14 -187,49 -259,81c-16,6 -18,0 -18,-57c0,-62 -1,-65 -45,-108c-25,-24 -45,-53 -45,-63c0,-11 15,-36 34,-57c18,-20 45,-69 61,-109c15,-40 37,-83 49,-97c11,-13 75,-46 140,-74c145,-60 172,-79 218,-144c51,-74 53,-92 17,-157c-81,-147 -111,-220 -106,-262c6,-57 51,-201 71,-232c21,-32 51,-32 71,-1c14,21 14,35 4,107c-11,77 -10,88 9,137c24,62 118,233 172,312c54,80 92,160 138,291c52,148 87,225 155,342c87,147 168,227 197,193c10,-14 2,-34 -75,-170c-32,-57 -38,-78 -39,-129c-1,-43 3,-61 13,-65c8,-3 42,26 81,67c37,39 70,71 74,71c13,0 4,-38 -23,-96c-34,-72 -91,-163 -182,-294c-83,-118 -108,-167 -116,-227c-5,-38 -17,-59 -67,-116c-69,-79 -212,-285 -233,-335c-12,-30 -12,-42 7,-114c38,-147 60,-169 216,-220c163,-53 161,-53 169,-20c9,42 74,101 118,109l37,6v-81c0,-44 4,-83 9,-87c5,-3 47,-10 93,-16c104,-14 155,-38 212,-99c49,-52 59,-78 54,-131c-3,-30 -7,-34 -34,-37c-26,-3 -33,1 -42,25c-6,15 -12,42 -14,58c-2,24 -8,31 -30,33c-37,4 -58,-29 -58,-96c0,-48 4,-58 34,-88c30,-30 59,-40 106,-36c176,16 170,17 286,-26c126,-46 181,-76 319,-177c118,-86 146,-115 250,-255c43,-58 92,-120 108,-139c16,-19 47,-71 69,-115c35,-72 39,-88 36,-139c-6,-80 -35,-109 -116,-115c-94,-7 -140,28 -157,118c-5,27 -1,43 17,70c20,29 30,35 66,38c39,3 42,5 42,32c0,40 -41,70 -94,70c-56,-1 -133,-44 -170,-98c-26,-37 -31,-55 -34,-117c-7,-139 49,-235 171,-291c79,-36 191,-44 266,-19c59,19 138,86 157,132c52,123 -47,358 -263,626c-35,43 -63,81 -63,85c0,3 33,-26 73,-65c67,-67 154,-123 191,-123c23,0 21,42 -7,138c-43,148 -149,302 -345,502c-98,100 -140,155 -128,167c22,22 410,-341 480,-449c70,-108 109,-243 125,-426c12,-131 27,-196 44,-188c7,2 53,22 102,44c61,27 94,47 102,63c28,58 47,195 47,344c0,175 -18,275 -89,493c-25,75 -45,142 -45,149c0,15 43,17 69,3c10,-5 28,-32 40,-59c28,-66 97,-350 112,-459c14,-108 6,-263 -20,-362c-20,-79 -18,-90 21,-111c26,-14 45,3 58,50c5,20 25,146 44,281c46,321 52,350 77,350c39,0 38,-25 -17,-380c-39,-253 -59,-330 -126,-470l-59,-125l41,40c43,41 160,192 198,257c31,50 91,221 145,413c40,138 53,193 83,332c3,18 11,23 35,23c18,0 32,-6 36,-16c17,-44 -122,-523 -215,-743c-33,-79 -34,-85 -17,-97c10,-7 38,-16 63,-20c58,-9 61,-5 163,197c185,371 268,616 269,800v67l-31,6c-48,9 -195,7 -223,-4c-18,-6 -28,-21 -36,-52c-21,-76 -51,-92 -130,-67c-19,6 -78,18 -130,28l-95,17l-6,65c-3,35 -9,71 -13,80c-10,23 -202,59 -314,59c-50,0 -107,6 -128,14c-22,7 -54,11 -73,8c-40,-6 -61,15 -61,59c0,24 -15,39 -41,39c-5,0 -26,-16 -48,-35l-38,-35l-74,26c-63,22 -84,24 -139,19c-107,-11 -143,-11 -147,2c-10,29 66,55 212,71l60,7l-38,29c-68,52 -82,103 -47,171c11,21 18,41 15,43c-3,3 -23,-3 -46,-13c-37,-17 -50,-18 -132,-7c-112,14 -168,2 -352,-76c-177,-75 -223,-86 -345,-86c-58,0 -126,3 -151,7l-46,8l8,57c5,35 14,61 25,69c13,10 73,13 224,13c199,0 210,1 301,28c52,16 128,44 169,61c64,28 93,34 195,41c125,9 159,16 149,31c-7,11 -219,119 -234,119c-5,0 -7,-7 -4,-15c9,-22 -4,-62 -21,-69c-23,-9 -62,21 -106,81c-44,58 -73,68 -104,33c-39,-43 -125,-89 -306,-163c-22,-9 -31,-6 -62,17c-20,16 -51,29 -69,29c-28,2 -35,-3 -56,-40c-13,-24 -28,-43 -33,-43c-5,0 -26,26 -46,57l-36,56l-40,-42c-40,-43 -40,-43 -31,-100c14,-97 10,-189 -8,-207c-15,-15 -17,-14 -34,11c-56,86 -58,375 -3,375c7,0 39,28 74,63c34,34 69,68 78,75c10,7 17,25 17,41c0,40 38,90 90,121c68,39 77,67 94,276c16,199 38,300 93,433c55,133 228,653 262,786c16,66 39,171 50,234c27,148 56,271 77,318c8,21 18,72 21,113c5,64 2,86 -21,151c-23,67 -26,91 -26,209v133l104,-101c107,-104 138,-122 176,-102c25,14 55,76 65,138c6,38 5,42 -13,42c-13,0 -22,9 -27,28c-13,54 -74,168 -107,199c-44,42 -83,52 -97,24c-9,-16 -8,-37 4,-87c8,-37 13,-69 11,-71c-8,-8 -196,219 -202,243c-4,17 3,35 29,66c25,32 36,57 41,96c13,99 23,103 105,39c31,-24 67,-50 81,-57c14,-7 43,-29 64,-48c22,-20 42,-30 44,-24c7,21 -32,65 -123,137c-132,105 -192,168 -205,214c-10,37 -6,72 20,176c14,58 12,104 -6,156l-17,46l42,75c22,42 41,84 41,95c0,25 -38,81 -66,100c-19,12 -22,12 -29,-4z"></path><path d="M10372,8155c-17,-63 -31,-161 -38,-282c-4,-62 -11,-113 -15,-113c-5,0 -32,9 -61,20c-45,17 -49,17 -28,2c92,-65 126,-119 136,-214c6,-65 6,-68 -18,-77c-13,-5 -51,-12 -84,-16c-87,-11 -92,-19 -27,-39c78,-25 150,-62 161,-83c5,-10 7,-33 5,-50c-6,-38 8,-119 48,-288c34,-142 35,-150 9,-283c-20,-103 -25,-186 -14,-216c3,-9 45,-44 92,-78c46,-34 134,-110 195,-170c118,-117 157,-146 342,-256c85,-50 141,-92 190,-141c38,-39 65,-71 59,-71c-24,0 -297,71 -384,100c-138,47 -200,81 -255,142c-46,51 -173,239 -246,361c-33,58 -99,127 -120,127c-17,0 -59,-51 -86,-105c-20,-38 -27,-73 -34,-155c-4,-58 -15,-148 -23,-200c-9,-52 -23,-158 -31,-235c-23,-201 -40,-272 -100,-425c-67,-173 -101,-240 -179,-353c-89,-129 -148,-228 -141,-236c13,-12 132,-3 162,13c17,8 43,30 57,48c14,18 27,30 30,27c15,-14 -33,-151 -73,-213l-43,-66l6,-103c7,-105 -3,-216 -27,-284c-7,-21 -30,-60 -50,-86c-21,-27 -49,-69 -64,-94c-21,-37 -24,-47 -12,-54c8,-5 82,-9 164,-9c137,0 154,2 200,24c28,13 75,48 105,78c65,66 87,78 160,93c69,14 71,24 31,142c-51,152 -54,184 -47,464c8,291 8,293 -59,264c-21,-8 -44,-15 -51,-15c-19,0 -18,77 1,123c21,51 19,102 -11,247l-26,126l22,60c45,120 61,192 75,336c24,228 52,358 75,343c13,-8 36,-121 59,-287c20,-138 20,-151 5,-225c-9,-43 -25,-109 -37,-148c-11,-38 -21,-100 -21,-136c-1,-72 11,-96 100,-206c24,-30 44,-59 44,-64c0,-6 -9,-22 -19,-35c-35,-45 -36,-95 -3,-161c51,-100 56,-132 57,-348v-200l33,-70c28,-57 36,-89 44,-174c5,-58 16,-117 24,-132c17,-34 58,-48 149,-51c66,-3 74,-1 125,33c73,48 130,76 215,107c61,22 91,26 230,29l160,5l95,-37c105,-40 239,-85 256,-85c6,0 33,9 59,21l47,21l-33,34c-22,23 -30,37 -23,44c14,14 206,29 450,37c226,6 305,-4 449,-59c96,-37 148,-83 165,-148c32,-117 -45,-267 -146,-286c-128,-24 -324,78 -340,178c-5,31 -1,41 31,76c51,57 92,69 147,44c24,-11 67,-38 97,-61c30,-22 58,-41 63,-41c13,0 21,48 14,85c-13,67 -114,91 -412,102c-207,7 -254,0 -329,-50c-47,-31 -55,-54 -55,-163c0,-93 -1,-99 -45,-191c-48,-102 -54,-133 -29,-157c21,-21 47,-20 94,4c47,24 76,26 84,4c10,-27 -22,-72 -80,-111c-103,-70 -113,-82 -121,-143c-13,-103 -12,-105 28,-108c48,-4 154,24 199,51c75,46 276,5 387,-80c25,-19 47,-32 50,-29c3,3 8,37 11,75c4,68 4,71 -27,101c-33,34 -31,34 -141,15c-34,-6 -38,-3 -112,78c-54,60 -78,94 -83,120c-8,39 1,77 16,77c6,0 43,-32 84,-70c80,-75 96,-81 158,-55c49,20 159,20 200,-2c18,-9 81,-51 142,-94c60,-42 151,-101 200,-131c97,-59 271,-127 284,-112c4,5 15,30 25,55l17,46l-36,53c-34,51 -40,70 -36,120c3,35 27,50 83,50c41,0 48,3 48,19c0,45 -87,114 -184,147c-62,21 -68,36 -51,120c23,106 44,162 71,183l25,20l-43,11c-97,26 -120,34 -143,56c-30,28 -33,74 -9,135l17,41l13,-38c15,-45 42,-68 103,-89c76,-26 96,-21 166,40c67,59 100,114 114,191c8,42 8,44 -14,38c-17,-4 -26,0 -34,13c-12,23 -38,172 -46,263c-5,70 -1,64 31,-43c17,-59 39,-81 54,-57c11,17 50,218 50,255c0,41 -24,72 -68,91c-156,65 -264,26 -353,-129c-95,-165 -98,-167 -167,-116c-83,61 -161,221 -178,364c-6,50 -4,58 26,105c55,86 46,134 -51,276c-108,156 -124,151 -115,-33c6,-133 6,-133 -18,-158c-14,-14 -31,-25 -38,-25c-7,0 -168,51 -358,114l-345,114l-32,43c-34,46 -114,99 -151,99c-13,0 -36,-10 -52,-21c-27,-21 -36,-22 -192,-16c-245,8 -358,44 -474,150c-50,45 -111,144 -102,165c1,6 69,-21 150,-59c176,-81 322,-137 382,-145c27,-4 65,0 102,11c62,17 284,122 284,134c0,4 -33,17 -72,30c-328,105 -597,339 -737,643c-91,197 -131,351 -131,506c0,95 18,190 42,220c7,8 7,12 0,12c-24,0 -124,-111 -149,-166c-48,-106 -45,-173 28,-484c40,-168 46,-220 29,-220c-35,0 -192,267 -220,374c-48,187 -114,637 -135,911c-30,410 -39,473 -78,567l-14,33zM11735,5104c12,-18 32,-70 45,-118c20,-74 21,-90 10,-116c-14,-33 -73,-80 -102,-80c-41,0 -174,209 -166,262c3,23 16,31 103,66c65,26 85,24 110,-14zM12018,4682c81,-81 179,-171 217,-200c93,-69 214,-128 300,-145c76,-16 75,-16 -42,-31c-52,-7 -494,-36 -549,-36h-41l-70,118c-91,152 -110,190 -123,247c-17,74 0,109 73,156c33,21 67,39 75,39c7,0 80,-67 160,-148zM13103,3625c47,-150 81,-305 70,-316c-18,-18 -71,39 -107,114c-40,84 -59,164 -54,227c2,36 8,47 28,57c14,7 28,9 31,5c4,-4 18,-43 32,-87z"></path><path d="M13209,7872l-31,-28l16,-74c14,-62 15,-85 5,-148c-6,-42 -15,-87 -20,-100c-17,-43 -2,-35 50,30c81,99 110,220 75,308c-20,49 -49,53 -95,12z"></path><path d="M9014,7744c-12,-63 3,-463 21,-539c33,-148 74,-225 180,-335c39,-41 126,-147 192,-235c133,-177 155,-200 179,-191c22,9 11,74 -27,153c-28,59 -109,154 -171,200c-36,27 -78,91 -78,119c0,21 5,24 34,24c48,0 123,54 152,109l23,43l-101,117c-181,209 -299,378 -354,507c-15,35 -31,64 -35,64c-4,0 -11,-16 -15,-36z"></path><path d="M11105,7642c-17,-11 -109,-97 -205,-193c-145,-144 -182,-186 -213,-245c-20,-40 -37,-79 -37,-88c0,-21 31,-36 73,-36c50,0 98,59 177,216c69,138 125,204 248,297c34,26 62,51 62,57c0,17 -73,11 -105,-8z"></path><path d="M11174,7035c-51,-26 -153,-109 -144,-118c3,-3 32,0 65,6c33,5 134,10 225,11c158,1 168,0 228,-26l63,-27l-6,32c-20,99 -24,106 -63,116c-79,21 -159,31 -237,31c-67,0 -90,-4 -131,-25z"></path><path d="M13222,6973c-46,-23 -91,-85 -163,-226c-34,-66 -75,-142 -91,-170c-16,-27 -27,-51 -24,-54c7,-7 146,54 207,90c65,39 91,81 130,218c32,110 34,130 17,147c-16,16 -36,15 -76,-5z"></path><path d="M9124,6828c3,-12 12,-66 22,-118c15,-85 24,-107 85,-211c57,-97 83,-131 161,-203c50,-47 98,-86 105,-86c11,0 13,14 8,63c-14,137 -13,137 -196,362c-94,116 -175,212 -180,213c-5,2 -8,-6 -5,-20z"></path><path d="M11244,6325c27,-64 104,-172 161,-223c71,-65 206,-133 371,-188c146,-48 166,-51 184,-29c26,31 8,49 -75,71c-182,47 -296,105 -400,202c-56,53 -210,177 -243,196c-10,6 -9,-1 2,-29z"></path><path d="M9227,6038c-12,-198 -10,-230 18,-279c14,-24 37,-68 51,-96c28,-57 44,-64 92,-39c26,14 86,79 125,135c18,27 67,171 67,198c0,10 -19,-2 -53,-34c-76,-72 -137,-98 -137,-59c0,7 -11,18 -25,24c-28,13 -44,41 -91,165c-19,50 -36,93 -38,94c-2,2 -6,-47 -9,-109z"></path><path d="M8727,5722c-32,-36 -38,-71 -28,-181c5,-58 16,-123 25,-143c19,-44 13,-66 -21,-74c-21,-6 -30,-1 -51,27c-14,19 -72,81 -127,138l-102,104l-27,-56c-14,-31 -26,-60 -26,-65c0,-5 14,-27 31,-48c26,-33 30,-45 26,-77c-3,-21 -18,-56 -34,-78c-51,-73 -50,-68 -22,-93c33,-29 192,-116 211,-116c19,0 55,39 76,81c17,33 19,34 97,41c44,3 81,5 83,4c1,-2 -4,-16 -13,-32c-17,-33 -20,-110 -4,-119c5,-4 33,3 61,15c37,16 65,21 111,18l62,-3v51c-1,39 -7,62 -29,94c-26,40 -27,46 -16,84c11,40 44,101 75,141c13,16 31,21 92,25c47,3 78,10 80,17c3,7 -15,33 -38,58c-42,45 -42,47 -30,82c7,19 9,39 5,43c-5,5 -43,10 -84,11c-41,1 -90,7 -107,12c-48,16 -96,-10 -135,-73c-17,-28 -37,-50 -45,-50c-21,0 -53,79 -53,133c0,51 -14,61 -43,29z"></path><path d="M11300,4111c0,-5 7,-25 15,-44c20,-49 20,-126 0,-134c-9,-3 -43,2 -76,12c-83,23 -91,18 -88,-52c3,-53 1,-58 -19,-61c-12,-2 -48,8 -79,22c-100,46 -117,45 -270,-15l-136,-53l43,-38c41,-36 43,-37 70,-23c41,21 137,18 216,-6c94,-29 133,-50 200,-109c45,-39 74,-55 128,-71c39,-12 113,-34 164,-50c51,-16 103,-29 116,-29c38,0 77,41 121,125c28,54 56,91 92,122c29,24 61,64 72,87c28,56 28,129 1,156c-29,29 -47,25 -60,-16c-13,-38 -60,-74 -97,-74c-19,0 -23,6 -23,30c0,17 9,48 20,70c23,45 25,72 8,103c-27,52 -72,60 -121,23c-29,-22 -136,-56 -174,-56c-9,0 -34,20 -57,45c-40,42 -66,57 -66,36z"></path><path d="M11006,3572c-2,-4 -1,-14 5,-22c5,-8 9,-34 9,-57c0,-64 -19,-73 -163,-73c-88,0 -119,-3 -123,-13c-6,-17 13,-69 29,-79c22,-14 78,-8 128,13c52,23 57,23 184,-5c39,-9 95,-16 126,-16c77,0 94,-19 94,-109l1,-66l43,-24c64,-35 110,-33 156,8c62,54 97,64 198,57c51,-3 96,-2 107,4c11,6 20,26 24,53c4,25 13,53 21,63c32,42 25,43 -192,41c-202,-2 -210,-1 -281,25c-92,33 -159,77 -202,129c-44,56 -146,100 -164,71z"></path><path d="M12727,3250c-32,-34 -67,-80 -79,-103c-42,-80 -20,-213 39,-240c36,-16 50,5 84,123c21,72 41,119 69,158c56,78 51,107 -22,118c-31,6 -38,1 -91,-56z"></path><path d="M12305,3219c-16,-5 -67,-8 -112,-7l-81,3l-60,-58c-35,-32 -70,-57 -82,-57c-30,0 -35,-24 -15,-86c15,-47 15,-64 5,-122c-15,-89 -84,-375 -105,-431c-8,-25 -54,-97 -102,-160c-89,-118 -117,-180 -111,-242c3,-30 7,-33 53,-44c92,-21 145,-52 215,-125c45,-47 74,-70 90,-70c13,0 64,19 114,42c130,60 150,59 231,-22c59,-58 65,-62 65,-40c0,14 -11,42 -25,62c-29,43 -33,78 -8,78c9,0 48,-33 87,-74c39,-40 86,-81 103,-90c46,-23 59,-48 77,-146c12,-64 22,-90 41,-110c20,-20 29,-23 43,-14c24,16 29,184 7,260c-18,61 -96,150 -175,199c-72,44 -118,94 -172,185c-88,149 -93,153 -196,183c-50,15 -54,15 -72,-3c-23,-23 -19,-40 22,-93c17,-21 28,-41 25,-44c-8,-7 -66,13 -104,37c-28,17 -33,26 -33,57c0,100 121,174 208,129c32,-17 84,-71 136,-141c41,-55 148,-133 220,-160c81,-31 73,-7 -41,115c-38,41 -75,85 -81,97c-18,33 -14,88 9,138c27,58 62,85 108,85c73,1 214,47 224,75c3,7 -5,36 -18,64c-17,36 -30,51 -44,51c-26,0 -35,-17 -33,-55c2,-21 -5,-38 -18,-50c-20,-18 -22,-18 -83,3c-34,12 -75,22 -90,22c-37,0 -88,-22 -111,-49c-25,-27 -62,-27 -77,0c-19,36 -29,152 -19,216c5,32 24,85 40,119c31,60 31,62 24,165c-8,122 -13,128 -79,108z"></path><path d="M9145,2768c-101,-36 -216,-182 -269,-343c-17,-54 -25,-139 -13,-151c7,-7 106,13 127,26c8,5 6,21 -8,56c-16,45 -17,56 -5,107c31,138 88,176 168,113c32,-26 28,-42 -16,-51c-40,-9 -45,-27 -20,-68c28,-45 64,-61 98,-45c40,20 84,81 90,125c4,34 1,43 -26,71c-18,17 -50,37 -72,43c-21,7 -39,14 -39,15c0,2 9,26 20,54c11,28 20,53 20,55c0,7 -22,5 -55,-7z"></path><path d="M9586,2673l-59,-37l65,-22c103,-35 234,-107 343,-190c141,-107 234,-169 241,-161c13,13 -19,67 -68,117c-89,90 -418,331 -451,330c-7,0 -39,-17 -71,-37z"></path><path d="M9430,2511c-16,-31 -11,-112 9,-157l18,-40l92,-12c62,-7 119,-22 179,-47c272,-113 258,-109 307,-95c25,7 48,17 52,23c11,18 -67,80 -210,167c-186,115 -212,128 -314,156c-106,29 -119,30 -133,5z"></path><path d="M9208,2317c-70,-51 -133,-98 -139,-104c-8,-8 -7,-34 4,-99c15,-85 15,-92 -5,-144c-35,-96 -34,-99 18,-160c70,-82 89,-141 63,-193c-17,-33 -60,-77 -92,-94c-25,-13 -31,-13 -53,2c-15,10 -24,25 -24,41c0,25 2,26 48,22l47,-3l-1,37c-1,24 -11,50 -28,73c-22,29 -34,35 -63,35c-85,0 -155,-159 -109,-248c20,-39 45,-58 101,-77c109,-36 236,-14 336,59c53,39 122,159 117,204c-3,29 -15,32 -90,17c-37,-7 -38,-7 -38,23c0,52 16,78 111,179c98,105 122,142 117,176c-4,29 -66,62 -99,54c-33,-8 -46,-38 -65,-150c-18,-104 -36,-155 -59,-163c-53,-21 -146,133 -115,190c11,21 10,29 -8,58c-21,35 -40,142 -26,150c5,3 40,1 77,-5c59,-9 70,-8 85,6c14,15 15,23 4,61c-11,44 -6,80 17,125c7,11 8,21 4,20c-4,0 -65,-42 -135,-92z"></path><path d="M9500,2217c1,-22 55,-91 85,-108c21,-13 72,-21 175,-29c79,-6 149,-12 155,-13c5,-1 10,9 10,22c0,38 -46,58 -212,95c-212,47 -213,47 -213,33z"></path><path d="M9572,1987c-7,-8 -16,-65 -22,-128c-13,-153 -68,-349 -113,-397c-32,-35 -88,-69 -146,-88c-28,-9 -51,-20 -51,-25c0,-12 30,-13 433,-13c228,-1 333,2 323,9c-9,6 -63,39 -122,75c-128,77 -168,115 -202,189c-22,47 -26,71 -27,146c0,50 3,115 7,146c9,63 -1,84 -43,94c-16,4 -30,1 -37,-8z"></path><path d="M9744,1893c-9,-50 12,-159 42,-210c43,-73 212,-178 331,-204c127,-29 70,64 -96,155c-102,56 -149,109 -172,191c-21,76 -41,105 -75,105c-19,0 -24,-7 -30,-37z"></path><path d="M11452,1878c3,-7 26,-24 53,-37c39,-21 66,-26 144,-29c53,-2 106,-8 119,-15c13,-6 41,-38 63,-71c37,-55 40,-65 35,-105c-3,-24 -11,-51 -18,-59c-20,-23 -110,-59 -170,-66c-66,-8 -100,5 -142,54c-40,48 -35,90 15,145c23,25 39,51 36,58c-6,17 -92,37 -187,44c-68,5 -78,3 -106,-18c-18,-13 -52,-39 -77,-58c-25,-19 -78,-47 -117,-64c-73,-30 -107,-64 -96,-93c5,-12 14,-15 39,-10c94,18 107,18 156,1c67,-22 106,-56 138,-119c21,-42 24,-55 15,-78c-7,-20 -7,-30 1,-35c17,-11 320,-15 392,-6l60,8l-3,36c-3,29 1,40 20,53c56,39 106,-1 94,-75l-7,-41l68,6c37,3 167,15 288,26c121,11 240,21 264,22c52,3 73,26 50,54c-12,15 -30,16 -173,11c-142,-5 -168,-4 -235,15c-42,11 -88,27 -103,36c-39,23 -66,79 -88,184c-11,51 -23,103 -25,116c-9,37 -133,91 -247,108c-120,18 -261,19 -256,2z"></path><path d="M12155,1818c-19,-17 -32,-47 -50,-115c-24,-92 -23,-120 2,-159c24,-38 44,-42 289,-61c45,-3 93,-3 106,0c53,14 67,128 23,188c-33,45 -65,69 -91,69c-27,0 -34,-17 -34,-87v-55l-60,4c-70,5 -100,26 -100,72c0,17 9,45 20,61c26,39 25,57 -3,83c-30,28 -69,28 -102,0z"></path><path d="M10535,1582c-22,-14 -80,-56 -130,-92c-122,-88 -139,-99 -199,-121l-51,-18l75,5c147,10 159,13 175,44c13,25 42,50 59,50c3,0 6,-24 8,-52l3,-53l67,3c37,2 108,-2 158,-8c103,-13 117,-8 122,42c4,45 23,45 52,0c21,-34 31,-40 68,-44c60,-6 298,3 298,12c0,4 -17,14 -37,23c-21,9 -55,30 -75,48c-34,29 -46,33 -130,40c-118,10 -232,46 -328,104c-41,24 -79,44 -85,44c-5,0 -28,-12 -50,-27z"></path></g></g></g></svg>