<?xml version="1.0" standalone="no"?>
<!DOCTYPE svg PUBLIC "-//W3C//DTD SVG 20010904//EN"
 "http://www.w3.org/TR/2001/REC-SVG-20010904/DTD/svg10.dtd">
<svg version="1.0" xmlns="http://www.w3.org/2000/svg"
 width="2000.000000pt" height="1769.000000pt" viewBox="0 0 2000.000000 1769.000000"
 preserveAspectRatio="xMidYMid meet">

<g transform="translate(0.000000,1769.000000) scale(0.100000,-0.100000)"
fill="#000000" stroke="none">
<path d="M5755 13068 c-142 -157 -207 -314 -240 -584 -14 -114 -20 -254 -10
-254 2 0 38 11 79 24 206 68 471 84 673 41 244 -52 864 -268 1486 -519 292
-118 741 -304 822 -341 l60 -27 -50 -14 c-61 -17 -369 -38 -446 -31 -30 3
-107 22 -170 42 -88 29 -131 38 -189 39 -71 1 -75 0 -78 -22 -2 -12 8 -48 23
-79 17 -37 22 -60 16 -66 -6 -6 -92 -19 -193 -30 -204 -21 -540 -27 -733 -13
-108 8 -122 7 -134 -8 -27 -32 -3 -67 73 -106 57 -29 65 -36 45 -38 -59 -9
-390 -96 -500 -133 -156 -51 -358 -141 -533 -235 -307 -167 -455 -277 -727
-542 -200 -194 -202 -177 28 -188 140 -7 142 -7 197 20 36 18 75 49 108 87 32
36 60 59 73 59 11 0 40 -14 65 -30 58 -39 136 -68 228 -86 136 -26 170 -17
335 89 82 54 160 97 172 97 16 0 -3 -30 -80 -125 -103 -127 -145 -191 -145
-222 0 -21 5 -23 48 -23 27 0 73 7 103 16 69 20 322 116 559 212 386 155 517
188 535 132 3 -9 -2 -95 -11 -191 -9 -99 -13 -201 -9 -237 6 -56 23 -92 44
-92 25 0 77 64 195 244 179 271 215 307 260 257 28 -31 29 -81 6 -222 -19
-115 -40 -191 -75 -272 -7 -16 -4 -17 21 -11 53 13 168 64 237 105 38 23 121
92 192 159 124 119 161 141 181 108 4 -7 11 -70 14 -141 l7 -128 52 -105 c29
-57 57 -104 61 -104 19 0 145 107 206 175 l68 76 36 -109 c39 -122 71 -170
138 -213 50 -31 109 -52 124 -43 6 4 7 31 3 63 -7 64 11 138 37 155 23 14 53
-14 74 -73 10 -25 31 -71 48 -101 27 -48 31 -65 31 -131 l0 -76 70 -61 c39
-34 72 -62 75 -62 3 0 4 51 2 113 -3 101 -1 116 17 138 l20 24 58 -60 c59 -60
122 -167 141 -238 14 -50 2 -83 -45 -123 l-36 -31 32 -47 c33 -48 68 -139 91
-236 7 -30 16 -60 21 -66 12 -15 -25 -120 -67 -190 -60 -100 -101 -147 -280
-318 l-173 -167 6 -47 c11 -87 51 -228 81 -289 37 -72 225 -309 412 -516 9
-11 13 553 4 590 -7 25 -10 19 -25 -43 -22 -90 -49 -148 -72 -152 -28 -6 -22
102 13 248 33 134 61 185 108 196 61 15 81 33 116 107 42 89 63 173 77 302 17
173 41 319 55 342 8 13 52 36 121 63 122 47 163 69 250 134 57 43 62 50 79
112 18 66 18 67 73 92 31 14 81 28 112 30 l55 4 50 111 49 112 7 -109 c9 -126
31 -176 101 -227 63 -46 93 -34 72 30 -7 23 -7 23 33 -5 129 -94 150 -114 167
-157 19 -50 17 -83 -5 -80 -8 0 -76 17 -150 36 -165 43 -293 59 -375 46 -146
-24 -394 -131 -501 -218 -64 -51 -104 -110 -104 -154 0 -29 25 -87 38 -87 4 0
34 38 67 85 48 66 69 88 105 103 75 33 150 52 251 61 105 10 155 27 211 71 35
29 38 29 75 16 21 -7 68 -31 103 -53 36 -22 106 -61 156 -86 110 -58 148 -93
188 -177 30 -64 31 -68 31 -215 l0 -150 24 0 c32 0 59 45 67 111 12 102 44
133 114 110 47 -15 70 -62 70 -142 l0 -61 -197 -184 c-283 -264 -260 -248
-391 -263 -114 -13 -177 -36 -226 -81 -88 -81 76 -97 263 -25 80 31 197 107
208 136 3 8 22 23 43 34 20 10 94 64 164 119 70 56 139 104 154 108 38 9 54
-18 107 -185 25 -81 55 -170 66 -199 30 -77 39 -157 39 -364 0 -221 1 -225
104 -393 99 -161 118 -211 118 -308 0 -55 -6 -89 -21 -123 -12 -26 -21 -53
-21 -61 0 -21 138 -324 171 -375 55 -86 129 -143 221 -170 57 -16 38 17 -71
122 -61 59 -111 110 -111 114 0 3 16 27 35 52 23 30 35 57 35 77 0 59 -180
543 -293 791 -58 126 -77 199 -77 295 -1 71 -14 201 -25 245 -16 58 37 -71
205 -497 102 -258 187 -468 190 -468 8 0 130 217 164 290 14 30 37 108 52 172
l26 117 31 -5 c128 -23 218 -50 269 -81 88 -53 119 -96 183 -259 31 -79 60
-144 63 -144 4 0 33 55 65 123 52 110 73 141 217 316 155 189 187 241 138 227
-13 -4 -52 -11 -87 -16 l-64 -8 -69 56 c-37 31 -68 57 -68 58 0 19 78 178 102
208 39 48 41 88 9 180 -23 65 -27 116 -10 133 7 7 1 14 -22 22 -51 18 -71 14
-200 -39 l-122 -49 -131 19 c-72 11 -148 25 -169 30 -37 11 -117 73 -117 91 0
5 30 9 68 9 100 0 172 11 172 25 0 7 -21 36 -46 64 l-46 51 -119 0 c-141 0
-148 4 -181 115 -12 38 -32 96 -44 128 -12 31 -20 57 -18 57 3 0 20 -16 40
-35 65 -65 132 -112 226 -158 51 -25 135 -78 187 -117 52 -39 98 -67 103 -62
12 12 14 222 4 402 -7 140 -6 164 13 247 21 92 27 229 12 267 -6 16 -11 14
-40 -23 -18 -22 -36 -41 -41 -41 -4 0 -15 21 -24 47 -15 45 -15 48 5 69 11 12
38 30 61 40 l41 18 -6 110 c-5 109 -5 111 -36 137 -47 39 -100 51 -266 60
-166 8 -209 15 -225 35 -17 19 -1 41 77 110 85 76 100 84 176 93 l62 7 -72 17
c-88 21 -155 22 -191 3 -30 -16 -114 -101 -156 -159 -28 -39 -147 -281 -161
-327 -15 -52 -55 -110 -77 -110 -20 0 -21 3 -15 93 8 104 37 229 69 293 12 24
55 81 96 126 40 46 87 107 104 136 l30 53 67 -7 c57 -5 74 -3 114 16 32 15 57
20 77 16 110 -21 334 -254 390 -402 18 -49 19 -64 10 -151 -6 -53 -9 -98 -7
-99 2 -2 30 36 63 84 69 101 162 202 188 202 26 0 69 -50 101 -117 24 -52 55
-173 70 -275 9 -59 34 -50 104 40 41 52 68 98 82 142 12 36 40 102 62 148 36
76 39 87 29 118 -8 28 -8 36 4 41 33 12 72 -12 149 -91 94 -98 105 -107 296
-224 l147 -89 -1 136 c-1 81 4 160 12 195 7 33 14 92 14 132 l1 73 72 -77 c39
-42 105 -104 145 -136 65 -52 151 -141 193 -201 14 -19 16 -18 38 30 21 46 23
64 23 206 l0 156 60 -27 c292 -132 383 -176 540 -259 258 -136 360 -181 416
-181 50 0 93 25 104 60 4 11 -14 68 -45 145 -29 70 -50 128 -48 130 2 2 92
-52 201 -121 206 -130 263 -154 358 -154 74 0 76 7 49 176 -12 80 -20 147 -18
150 3 3 71 -58 151 -135 186 -178 292 -235 341 -185 34 33 20 55 -146 219
-326 322 -787 674 -1065 814 -100 50 -348 144 -416 156 -20 4 -39 11 -42 15
-3 5 16 28 42 52 100 92 113 111 113 173 0 60 -9 69 -39 39 -38 -39 -92 -60
-215 -83 -161 -31 -208 -28 -501 32 -218 45 -260 56 -257 70 5 31 -26 86 -53
93 -14 3 -78 1 -142 -6 -86 -9 -170 -10 -313 -4 -389 18 -498 7 -633 -64 -74
-38 -114 -80 -153 -158 -35 -71 -39 -133 -19 -252 16 -99 16 -103 -2 -135 -11
-18 -42 -44 -73 -62 l-55 -30 -300 0 c-418 0 -442 -9 -505 -183 -42 -116 -85
-286 -116 -457 -17 -91 -36 -163 -55 -205 -33 -72 -107 -190 -119 -190 -9 0
-17 50 -26 170 -4 47 -13 103 -21 125 -46 131 -53 255 -22 377 20 78 23 178 5
206 -6 10 -108 -16 -122 -31 -4 -4 3 -21 16 -38 18 -26 20 -33 9 -40 -8 -4
-69 -43 -136 -86 -67 -43 -142 -90 -166 -104 -51 -30 -63 -59 -38 -90 16 -20
19 -21 48 -5 17 8 41 28 52 42 12 15 23 25 26 22 3 -2 19 -60 36 -129 34 -131
41 -235 25 -338 -9 -52 -9 -53 12 -42 40 21 46 79 28 256 -10 88 -20 176 -23
196 -5 35 -4 37 32 49 20 7 39 9 43 5 4 -3 7 -133 7 -288 0 -270 -1 -285 -24
-357 -26 -82 -30 -170 -11 -254 6 -27 9 -51 6 -53 -7 -7 -151 103 -181 138
-29 35 -38 64 -33 105 2 23 10 30 41 39 l38 11 -76 68 c-42 38 -74 73 -72 79
2 6 27 19 57 29 75 25 79 33 24 52 -36 12 -66 35 -124 96 -60 63 -83 80 -105
80 -26 0 -27 -2 -22 -37 3 -21 9 -49 13 -62 7 -23 6 -24 -35 -17 -62 10 -118
42 -136 77 -10 19 -15 49 -13 84 l3 54 59 -27 c43 -19 61 -23 64 -14 2 7 22
36 43 65 41 53 46 89 18 124 -16 19 -20 18 -85 -27 -53 -36 -65 -40 -121 -40
-79 0 -125 -20 -238 -104 -49 -37 -127 -90 -175 -118 -160 -95 -430 -292 -430
-314 0 -22 37 -34 135 -42 l90 -8 -95 -47 c-152 -76 -207 -72 -230 13 -9 33
-7 49 11 102 15 42 20 73 15 91 l-6 27 -35 -34 c-40 -40 -70 -52 -90 -36 -18
15 -20 63 -4 91 14 27 97 79 126 79 25 0 103 71 103 94 0 8 -13 68 -29 133
-25 101 -30 148 -36 320 l-8 202 -76 -53 c-165 -116 -265 -149 -448 -150 -139
-1 -162 8 -198 80 -17 33 -20 59 -20 174 l1 135 56 170 c31 94 64 189 72 213
21 55 6 97 -34 97 -20 0 -30 -11 -57 -65 -17 -36 -46 -110 -63 -165 -18 -55
-41 -127 -52 -160 -43 -133 -43 -131 -30 -207 8 -45 29 -106 55 -160 24 -49
39 -88 35 -88 -13 0 -156 59 -208 85 -59 30 -66 48 -63 155 5 149 42 289 127
474 20 44 35 84 33 90 -6 18 -130 -118 -169 -185 -21 -35 -38 -58 -38 -52 0
23 264 622 296 670 18 29 18 90 -1 127 -8 15 -15 30 -15 31 0 11 86 15 115 5
69 -23 81 -80 43 -196 -18 -56 -30 -73 -81 -117 -54 -47 -106 -122 -93 -134 8
-9 128 81 173 130 48 52 81 114 113 212 12 39 23 71 24 72 1 1 32 -9 69 -22
78 -29 123 -31 155 -9 38 27 28 50 -32 73 -30 11 -302 119 -603 240 -1449 580
-2362 977 -2668 1161 -56 34 -112 82 -186 157 -121 124 -154 164 -237 286
l-60 87 -47 -52z m6696 -3812 c24 -8 61 -17 82 -21 21 -3 41 -13 44 -22 7 -19
-6 -71 -49 -194 -68 -194 -127 -260 -493 -552 -155 -124 -243 -201 -249 -218
-14 -41 -1 -72 63 -142 60 -67 80 -102 64 -118 -10 -10 -90 10 -153 40 -63 29
-80 27 -80 -6 0 -31 42 -128 67 -155 22 -24 79 -34 109 -18 20 11 27 11 44 -5
29 -26 25 -40 -17 -65 -32 -19 -49 -22 -103 -18 -69 5 -150 35 -187 70 -38 36
-47 111 -33 282 15 182 26 212 138 364 43 59 140 201 216 316 207 316 299 431
369 461 42 18 112 19 168 1z m-333 -1125 c28 -36 52 -73 52 -82 0 -9 -12 -25
-27 -34 -24 -16 -30 -16 -52 -4 -14 8 -35 28 -46 45 -29 43 -70 167 -62 188 6
16 11 14 45 -15 20 -18 61 -62 90 -98z m83 -380 c44 -43 38 -42 230 -59 58 -6
119 -17 136 -26 30 -15 53 -58 53 -97 0 -17 -2 -17 -35 2 -46 27 -57 18 -40
-31 16 -45 8 -55 -32 -39 -20 8 -54 7 -124 -2 -85 -10 -99 -10 -131 5 -80 38
-218 189 -218 237 0 21 12 29 54 40 55 13 65 10 107 -30z m763 7 c8 -13 25
-50 37 -83 12 -33 26 -65 31 -72 13 -17 -28 -36 -59 -28 -37 9 -82 -4 -94 -27
-10 -18 -5 -26 32 -60 l44 -40 -28 -14 c-29 -16 -34 -41 -16 -75 16 -32 1 -58
-49 -83 -46 -23 -161 -56 -195 -56 -10 0 -41 12 -70 27 -47 25 -62 28 -152 28
-91 0 -106 3 -167 32 -168 80 -330 227 -363 331 l-7 23 53 -26 c29 -15 84 -60
124 -100 40 -40 81 -77 91 -83 11 -6 95 -29 188 -52 183 -46 193 -46 341 -12
73 17 80 21 83 45 5 39 -14 65 -52 72 -52 10 -61 41 -36 125 11 37 26 72 33
77 6 6 43 15 82 21 39 6 80 20 95 31 32 26 37 25 54 -1z"/>
<path d="M11120 11215 c0 -20 12 -58 26 -86 36 -73 27 -86 -36 -54 -42 21 -50
23 -50 9 0 -25 58 -105 116 -159 29 -27 56 -62 60 -77 l6 -28 -58 -1 c-33 0
-77 -3 -99 -7 -39 -7 -40 -9 -57 -71 -9 -35 -19 -65 -21 -68 -3 -2 -30 26 -61
62 -46 54 -55 71 -49 88 17 46 7 123 -21 171 -25 43 -27 51 -15 78 7 17 35 47
62 66 l50 36 -44 19 c-24 10 -55 19 -69 20 -22 2 -25 -3 -30 -39 -6 -39 -33
-88 -64 -114 -13 -10 -21 -9 -42 5 -36 23 -48 8 -49 -62 l0 -57 65 -1 65 0 9
-37 c12 -49 -1 -64 -65 -71 -57 -7 -81 -23 -99 -68 -13 -31 -15 -32 -72 -29
l-38 2 0 -55 c0 -52 -2 -57 -34 -76 -49 -31 -65 -27 -84 19 -19 45 -27 49 -42
20 -11 -21 0 -54 43 -120 19 -31 22 -47 21 -142 l-1 -107 -35 -39 c-67 -74
-158 -430 -129 -504 14 -36 43 -36 66 -1 13 19 18 50 20 112 3 103 21 245 37
284 6 15 25 35 42 44 57 28 66 42 66 98 0 185 46 194 57 12 4 -64 11 -98 22
-111 21 -24 69 -48 81 -41 18 11 10 75 -16 126 -23 47 -24 53 -12 91 21 61 44
73 95 47 77 -38 93 -60 93 -130 0 -45 5 -68 17 -82 17 -18 16 -20 -4 -57 -13
-21 -25 -56 -29 -78 -6 -36 -3 -42 20 -58 15 -9 46 -18 70 -18 35 -1 52 6 97
40 64 49 77 54 107 43 36 -13 26 -36 -44 -107 -137 -138 -173 -248 -45 -139
28 24 68 65 88 91 36 46 39 48 78 43 37 -6 43 -3 57 21 41 68 97 91 83 33 -9
-37 -87 -160 -124 -195 -42 -40 -39 -50 11 -42 46 8 88 39 88 67 0 44 42 78
120 94 43 9 87 48 95 86 9 42 -29 138 -68 171 -28 24 -32 32 -31 75 1 26 4 57
5 68 4 21 -18 25 -53 11 -14 -7 -17 2 -20 64 l-3 72 37 30 c35 28 58 75 58
121 0 10 -20 39 -43 65 -59 64 -63 78 -27 97 16 8 31 18 34 23 2 4 -1 66 -9
137 -15 146 1 118 -134 233 -56 48 -97 72 -123 72 -14 0 -18 -8 -18 -35z"/>
<path d="M9754 11176 c7 -43 6 -44 -46 -86 -29 -24 -89 -60 -134 -80 -134 -63
-183 -137 -189 -284 -5 -131 -20 -186 -83 -316 l-55 -115 -5 -124 c-4 -118 -4
-124 14 -116 125 51 119 50 343 50 163 0 215 3 219 13 6 20 -33 91 -99 177
-57 75 -60 83 -57 125 6 65 31 110 110 197 78 88 74 98 -26 69 -97 -29 -163
-126 -151 -223 6 -51 5 -53 -20 -63 -62 -24 -135 -4 -135 35 0 8 11 50 25 94
30 95 39 104 207 202 88 52 112 70 110 85 -14 83 -13 130 2 143 14 12 20 11
41 -9 13 -12 27 -35 30 -51 9 -41 18 -42 60 -9 35 28 40 29 60 16 12 -8 78
-33 146 -56 68 -23 148 -54 178 -71 61 -33 71 -29 71 31 l0 35 -213 88 -212
88 -18 42 c-24 58 -71 114 -118 137 -57 29 -62 27 -55 -24z"/>
<path d="M10564 11075 c-14 -34 -11 -80 7 -90 19 -12 79 51 79 84 0 9 -50 41
-65 41 -3 0 -13 -16 -21 -35z"/>
<path d="M10424 10924 c-8 -43 9 -84 34 -84 17 0 62 63 62 87 0 12 -45 33 -70
33 -14 0 -21 -10 -26 -36z"/>
<path d="M10417 10803 c-4 -3 -7 -26 -7 -51 l0 -44 31 6 c17 3 35 6 40 6 16 0
9 23 -17 57 -25 33 -35 39 -47 26z"/>
<path d="M9960 10131 l-45 -6 63 -27 c34 -15 62 -32 62 -37 0 -6 -13 -32 -30
-58 -34 -53 -38 -98 -14 -148 19 -40 36 -52 136 -93 83 -35 101 -39 76 -19 -8
6 -39 38 -67 70 -60 67 -63 91 -22 156 31 49 47 116 36 151 -6 18 -14 20 -78
18 -40 0 -92 -4 -117 -7z"/>
<path d="M0 8171 l0 -158 223 -6 c415 -10 616 -63 798 -210 129 -105 209 -230
253 -398 56 -213 56 -198 56 -2264 0 -1045 5 -2042 10 -2215 19 -651 88 -1125
216 -1478 201 -555 643 -1002 1164 -1175 590 -196 1333 -85 1888 282 204 135
411 308 715 598 144 137 254 249 590 601 38 39 71 72 73 72 2 0 4 -371 4 -825
l0 -825 191 0 191 0 302 125 c1616 670 2031 844 2034 854 4 12 -94 288 -107
303 -4 4 -52 -10 -107 -32 -266 -104 -516 -130 -677 -70 -202 76 -330 300
-367 643 -32 303 -34 424 -39 3372 l-6 2960 -1337 3 -1338 2 0 -158 0 -159
130 -6 c344 -18 637 -85 791 -183 195 -123 298 -366 329 -774 6 -85 10 -982
10 -2421 l0 -2285 -162 -160 c-526 -517 -913 -772 -1371 -905 -166 -48 -259
-62 -417 -62 -288 1 -533 73 -758 225 -306 207 -435 476 -510 1068 -14 111
-16 444 -19 2973 l-4 2847 -1374 0 -1375 0 0 -159z"/>
<path d="M9905 8213 c-45 -112 -56 -164 -64 -308 -6 -103 -16 -175 -31 -230
-21 -74 -22 -87 -11 -167 6 -48 13 -95 16 -105 3 -10 -14 21 -37 69 -24 48
-46 88 -50 88 -5 0 -8 -60 -8 -134 0 -105 7 -175 31 -313 16 -98 33 -194 36
-213 8 -49 1 -38 -42 65 -21 50 -41 94 -45 98 -4 5 -5 -34 -3 -85 10 -234 19
-972 12 -1048 -9 -112 -30 -197 -73 -298 -145 -344 -605 -745 -956 -832 -120
-30 -300 -37 -413 -16 -74 14 -187 49 -259 81 -16 6 -18 0 -18 -57 0 -62 -1
-65 -45 -108 -25 -24 -45 -53 -45 -63 0 -11 15 -36 34 -57 18 -20 45 -69 61
-109 15 -40 37 -83 49 -97 11 -13 75 -46 140 -74 145 -60 172 -79 218 -144 51
-74 53 -92 17 -157 -81 -147 -111 -220 -106 -262 6 -57 51 -201 71 -232 21
-32 51 -32 71 -1 14 21 14 35 4 107 -11 77 -10 88 9 137 24 62 118 233 172
312 54 80 92 160 138 291 52 148 87 225 155 342 87 147 168 227 197 193 10
-14 2 -34 -75 -170 -32 -57 -38 -78 -39 -129 -1 -43 3 -61 13 -65 8 -3 42 26
81 67 37 39 70 71 74 71 13 0 4 -38 -23 -96 -34 -72 -91 -163 -182 -294 -83
-118 -108 -167 -116 -227 -5 -38 -17 -59 -67 -116 -69 -79 -212 -285 -233
-335 -12 -30 -12 -42 7 -114 38 -147 60 -169 216 -220 163 -53 161 -53 169
-20 9 42 74 101 118 109 l37 6 0 -81 c0 -44 4 -83 9 -87 5 -3 47 -10 93 -16
104 -14 155 -38 212 -99 49 -52 59 -78 54 -131 -3 -30 -7 -34 -34 -37 -26 -3
-33 1 -42 25 -6 15 -12 42 -14 58 -2 24 -8 31 -30 33 -37 4 -58 -29 -58 -96 0
-48 4 -58 34 -88 30 -30 59 -40 106 -36 176 16 170 17 286 -26 126 -46 181
-76 319 -177 118 -86 146 -115 250 -255 43 -58 92 -120 108 -139 16 -19 47
-71 69 -115 35 -72 39 -88 36 -139 -6 -80 -35 -109 -116 -115 -94 -7 -140 28
-157 118 -5 27 -1 43 17 70 20 29 30 35 66 38 39 3 42 5 42 32 0 40 -41 70
-94 70 -56 -1 -133 -44 -170 -98 -26 -37 -31 -55 -34 -117 -7 -139 49 -235
171 -291 79 -36 191 -44 266 -19 59 19 138 86 157 132 52 123 -47 358 -263
626 -35 43 -63 81 -63 85 0 3 33 -26 73 -65 67 -67 154 -123 191 -123 23 0 21
42 -7 138 -43 148 -149 302 -345 502 -98 100 -140 155 -128 167 22 22 410
-341 480 -449 70 -108 109 -243 125 -426 12 -131 27 -196 44 -188 7 2 53 22
102 44 61 27 94 47 102 63 28 58 47 195 47 344 0 175 -18 275 -89 493 -25 75
-45 142 -45 149 0 15 43 17 69 3 10 -5 28 -32 40 -59 28 -66 97 -350 112 -459
14 -108 6 -263 -20 -362 -20 -79 -18 -90 21 -111 26 -14 45 3 58 50 5 20 25
146 44 281 46 321 52 350 77 350 39 0 38 -25 -17 -380 -39 -253 -59 -330 -126
-470 l-59 -125 41 40 c43 41 160 192 198 257 31 50 91 221 145 413 40 138 53
193 83 332 3 18 11 23 35 23 18 0 32 -6 36 -16 17 -44 -122 -523 -215 -743
-33 -79 -34 -85 -17 -97 10 -7 38 -16 63 -20 58 -9 61 -5 163 197 185 371 268
616 269 800 l0 67 -31 6 c-48 9 -195 7 -223 -4 -18 -6 -28 -21 -36 -52 -21
-76 -51 -92 -130 -67 -19 6 -78 18 -130 28 l-95 17 -6 65 c-3 35 -9 71 -13 80
-10 23 -202 59 -314 59 -50 0 -107 6 -128 14 -22 7 -54 11 -73 8 -40 -6 -61
15 -61 59 0 24 -15 39 -41 39 -5 0 -26 -16 -48 -35 l-38 -35 -74 26 c-63 22
-84 24 -139 19 -107 -11 -143 -11 -147 2 -10 29 66 55 212 71 l60 7 -38 29
c-68 52 -82 103 -47 171 11 21 18 41 15 43 -3 3 -23 -3 -46 -13 -37 -17 -50
-18 -132 -7 -112 14 -168 2 -352 -76 -177 -75 -223 -86 -345 -86 -58 0 -126 3
-151 7 l-46 8 8 57 c5 35 14 61 25 69 13 10 73 13 224 13 199 0 210 1 301 28
52 16 128 44 169 61 64 28 93 34 195 41 125 9 159 16 149 31 -7 11 -219 119
-234 119 -5 0 -7 -7 -4 -15 9 -22 -4 -62 -21 -69 -23 -9 -62 21 -106 81 -44
58 -73 68 -104 33 -39 -43 -125 -89 -306 -163 -22 -9 -31 -6 -62 17 -20 16
-51 29 -69 29 -28 2 -35 -3 -56 -40 -13 -24 -28 -43 -33 -43 -5 0 -26 26 -46
57 l-36 56 -40 -42 c-40 -43 -40 -43 -31 -100 14 -97 10 -189 -8 -207 -15 -15
-17 -14 -34 11 -56 86 -58 375 -3 375 7 0 39 28 74 63 34 34 69 68 78 75 10 7
17 25 17 41 0 40 38 90 90 121 68 39 77 67 94 276 16 199 38 300 93 433 55
133 228 653 262 786 16 66 39 171 50 234 27 148 56 271 77 318 8 21 18 72 21
113 5 64 2 86 -21 151 -23 67 -26 91 -26 209 l0 133 104 -101 c107 -104 138
-122 176 -102 25 14 55 76 65 138 6 38 5 42 -13 42 -13 0 -22 9 -27 28 -13 54
-74 168 -107 199 -44 42 -83 52 -97 24 -9 -16 -8 -37 4 -87 8 -37 13 -69 11
-71 -8 -8 -196 219 -202 243 -4 17 3 35 29 66 25 32 36 57 41 96 13 99 23 103
105 39 31 -24 67 -50 81 -57 14 -7 43 -29 64 -48 22 -20 42 -30 44 -24 7 21
-32 65 -123 137 -132 105 -192 168 -205 214 -10 37 -6 72 20 176 14 58 12 104
-6 156 l-17 46 42 75 c22 42 41 84 41 95 0 25 -38 81 -66 100 -19 12 -22 12
-29 -4z"/>
<path d="M10372 8155 c-17 -63 -31 -161 -38 -282 -4 -62 -11 -113 -15 -113 -5
0 -32 9 -61 20 -45 17 -49 17 -28 2 92 -65 126 -119 136 -214 6 -65 6 -68 -18
-77 -13 -5 -51 -12 -84 -16 -87 -11 -92 -19 -27 -39 78 -25 150 -62 161 -83 5
-10 7 -33 5 -50 -6 -38 8 -119 48 -288 34 -142 35 -150 9 -283 -20 -103 -25
-186 -14 -216 3 -9 45 -44 92 -78 46 -34 134 -110 195 -170 118 -117 157 -146
342 -256 85 -50 141 -92 190 -141 38 -39 65 -71 59 -71 -24 0 -297 71 -384
100 -138 47 -200 81 -255 142 -46 51 -173 239 -246 361 -33 58 -99 127 -120
127 -17 0 -59 -51 -86 -105 -20 -38 -27 -73 -34 -155 -4 -58 -15 -148 -23
-200 -9 -52 -23 -158 -31 -235 -23 -201 -40 -272 -100 -425 -67 -173 -101
-240 -179 -353 -89 -129 -148 -228 -141 -236 13 -12 132 -3 162 13 17 8 43 30
57 48 14 18 27 30 30 27 15 -14 -33 -151 -73 -213 l-43 -66 6 -103 c7 -105 -3
-216 -27 -284 -7 -21 -30 -60 -50 -86 -21 -27 -49 -69 -64 -94 -21 -37 -24
-47 -12 -54 8 -5 82 -9 164 -9 137 0 154 2 200 24 28 13 75 48 105 78 65 66
87 78 160 93 69 14 71 24 31 142 -51 152 -54 184 -47 464 8 291 8 293 -59 264
-21 -8 -44 -15 -51 -15 -19 0 -18 77 1 123 21 51 19 102 -11 247 l-26 126 22
60 c45 120 61 192 75 336 24 228 52 358 75 343 13 -8 36 -121 59 -287 20 -138
20 -151 5 -225 -9 -43 -25 -109 -37 -148 -11 -38 -21 -100 -21 -136 -1 -72 11
-96 100 -206 24 -30 44 -59 44 -64 0 -6 -9 -22 -19 -35 -35 -45 -36 -95 -3
-161 51 -100 56 -132 57 -348 l0 -200 33 -70 c28 -57 36 -89 44 -174 5 -58 16
-117 24 -132 17 -34 58 -48 149 -51 66 -3 74 -1 125 33 73 48 130 76 215 107
61 22 91 26 230 29 l160 5 95 -37 c105 -40 239 -85 256 -85 6 0 33 9 59 21
l47 21 -33 34 c-22 23 -30 37 -23 44 14 14 206 29 450 37 226 6 305 -4 449
-59 96 -37 148 -83 165 -148 32 -117 -45 -267 -146 -286 -128 -24 -324 78
-340 178 -5 31 -1 41 31 76 51 57 92 69 147 44 24 -11 67 -38 97 -61 30 -22
58 -41 63 -41 13 0 21 48 14 85 -13 67 -114 91 -412 102 -207 7 -254 0 -329
-50 -47 -31 -55 -54 -55 -163 0 -93 -1 -99 -45 -191 -48 -102 -54 -133 -29
-157 21 -21 47 -20 94 4 47 24 76 26 84 4 10 -27 -22 -72 -80 -111 -103 -70
-113 -82 -121 -143 -13 -103 -12 -105 28 -108 48 -4 154 24 199 51 75 46 276
5 387 -80 25 -19 47 -32 50 -29 3 3 8 37 11 75 4 68 4 71 -27 101 -33 34 -31
34 -141 15 -34 -6 -38 -3 -112 78 -54 60 -78 94 -83 120 -8 39 1 77 16 77 6 0
43 -32 84 -70 80 -75 96 -81 158 -55 49 20 159 20 200 -2 18 -9 81 -51 142
-94 60 -42 151 -101 200 -131 97 -59 271 -127 284 -112 4 5 15 30 25 55 l17
46 -36 53 c-34 51 -40 70 -36 120 3 35 27 50 83 50 41 0 48 3 48 19 0 45 -87
114 -184 147 -62 21 -68 36 -51 120 23 106 44 162 71 183 l25 20 -43 11 c-97
26 -120 34 -143 56 -30 28 -33 74 -9 135 l17 41 13 -38 c15 -45 42 -68 103
-89 76 -26 96 -21 166 40 67 59 100 114 114 191 8 42 8 44 -14 38 -17 -4 -26
0 -34 13 -12 23 -38 172 -46 263 -5 70 -1 64 31 -43 17 -59 39 -81 54 -57 11
17 50 218 50 255 0 41 -24 72 -68 91 -156 65 -264 26 -353 -129 -95 -165 -98
-167 -167 -116 -83 61 -161 221 -178 364 -6 50 -4 58 26 105 55 86 46 134 -51
276 -108 156 -124 151 -115 -33 6 -133 6 -133 -18 -158 -14 -14 -31 -25 -38
-25 -7 0 -168 51 -358 114 l-345 114 -32 43 c-34 46 -114 99 -151 99 -13 0
-36 -10 -52 -21 -27 -21 -36 -22 -192 -16 -245 8 -358 44 -474 150 -50 45
-111 144 -102 165 1 6 69 -21 150 -59 176 -81 322 -137 382 -145 27 -4 65 0
102 11 62 17 284 122 284 134 0 4 -33 17 -72 30 -328 105 -597 339 -737 643
-91 197 -131 351 -131 506 0 95 18 190 42 220 7 8 7 12 0 12 -24 0 -124 -111
-149 -166 -48 -106 -45 -173 28 -484 40 -168 46 -220 29 -220 -35 0 -192 267
-220 374 -48 187 -114 637 -135 911 -30 410 -39 473 -78 567 l-14 33 -11 -40z
m1363 -3051 c12 -18 32 -70 45 -118 20 -74 21 -90 10 -116 -14 -33 -73 -80
-102 -80 -41 0 -174 209 -166 262 3 23 16 31 103 66 65 26 85 24 110 -14z
m283 -422 c81 -81 179 -171 217 -200 93 -69 214 -128 300 -145 76 -16 75 -16
-42 -31 -52 -7 -494 -36 -549 -36 l-41 0 -70 118 c-91 152 -110 190 -123 247
-17 74 0 109 73 156 33 21 67 39 75 39 7 0 80 -67 160 -148z m1085 -1057 c47
-150 81 -305 70 -316 -18 -18 -71 39 -107 114 -40 84 -59 164 -54 227 2 36 8
47 28 57 14 7 28 9 31 5 4 -4 18 -43 32 -87z"/>
<path d="M13209 7872 l-31 -28 16 -74 c14 -62 15 -85 5 -148 -6 -42 -15 -87
-20 -100 -17 -43 -2 -35 50 30 81 99 110 220 75 308 -20 49 -49 53 -95 12z"/>
<path d="M9014 7744 c-12 -63 3 -463 21 -539 33 -148 74 -225 180 -335 39 -41
126 -147 192 -235 133 -177 155 -200 179 -191 22 9 11 74 -27 153 -28 59 -109
154 -171 200 -36 27 -78 91 -78 119 0 21 5 24 34 24 48 0 123 54 152 109 l23
43 -101 117 c-181 209 -299 378 -354 507 -15 35 -31 64 -35 64 -4 0 -11 -16
-15 -36z"/>
<path d="M11105 7642 c-17 -11 -109 -97 -205 -193 -145 -144 -182 -186 -213
-245 -20 -40 -37 -79 -37 -88 0 -21 31 -36 73 -36 50 0 98 59 177 216 69 138
125 204 248 297 34 26 62 51 62 57 0 17 -73 11 -105 -8z"/>
<path d="M11174 7035 c-51 -26 -153 -109 -144 -118 3 -3 32 0 65 6 33 5 134
10 225 11 158 1 168 0 228 -26 l63 -27 -6 32 c-20 99 -24 106 -63 116 -79 21
-159 31 -237 31 -67 0 -90 -4 -131 -25z"/>
<path d="M13222 6973 c-46 -23 -91 -85 -163 -226 -34 -66 -75 -142 -91 -170
-16 -27 -27 -51 -24 -54 7 -7 146 54 207 90 65 39 91 81 130 218 32 110 34
130 17 147 -16 16 -36 15 -76 -5z"/>
<path d="M9124 6828 c3 -12 12 -66 22 -118 15 -85 24 -107 85 -211 57 -97 83
-131 161 -203 50 -47 98 -86 105 -86 11 0 13 14 8 63 -14 137 -13 137 -196
362 -94 116 -175 212 -180 213 -5 2 -8 -6 -5 -20z"/>
<path d="M11244 6325 c27 -64 104 -172 161 -223 71 -65 206 -133 371 -188 146
-48 166 -51 184 -29 26 31 8 49 -75 71 -182 47 -296 105 -400 202 -56 53 -210
177 -243 196 -10 6 -9 -1 2 -29z"/>
<path d="M9227 6038 c-12 -198 -10 -230 18 -279 14 -24 37 -68 51 -96 28 -57
44 -64 92 -39 26 14 86 79 125 135 18 27 67 171 67 198 0 10 -19 -2 -53 -34
-76 -72 -137 -98 -137 -59 0 7 -11 18 -25 24 -28 13 -44 41 -91 165 -19 50
-36 93 -38 94 -2 2 -6 -47 -9 -109z"/>
<path d="M8727 5722 c-32 -36 -38 -71 -28 -181 5 -58 16 -123 25 -143 19 -44
13 -66 -21 -74 -21 -6 -30 -1 -51 27 -14 19 -72 81 -127 138 l-102 104 -27
-56 c-14 -31 -26 -60 -26 -65 0 -5 14 -27 31 -48 26 -33 30 -45 26 -77 -3 -21
-18 -56 -34 -78 -51 -73 -50 -68 -22 -93 33 -29 192 -116 211 -116 19 0 55 39
76 81 17 33 19 34 97 41 44 3 81 5 83 4 1 -2 -4 -16 -13 -32 -17 -33 -20 -110
-4 -119 5 -4 33 3 61 15 37 16 65 21 111 18 l62 -3 0 51 c-1 39 -7 62 -29 94
-26 40 -27 46 -16 84 11 40 44 101 75 141 13 16 31 21 92 25 47 3 78 10 80 17
3 7 -15 33 -38 58 -42 45 -42 47 -30 82 7 19 9 39 5 43 -5 5 -43 10 -84 11
-41 1 -90 7 -107 12 -48 16 -96 -10 -135 -73 -17 -28 -37 -50 -45 -50 -21 0
-53 79 -53 133 0 51 -14 61 -43 29z"/>
<path d="M11300 4111 c0 -5 7 -25 15 -44 20 -49 20 -126 0 -134 -9 -3 -43 2
-76 12 -83 23 -91 18 -88 -52 3 -53 1 -58 -19 -61 -12 -2 -48 8 -79 22 -100
46 -117 45 -270 -15 l-136 -53 43 -38 c41 -36 43 -37 70 -23 41 21 137 18 216
-6 94 -29 133 -50 200 -109 45 -39 74 -55 128 -71 39 -12 113 -34 164 -50 51
-16 103 -29 116 -29 38 0 77 41 121 125 28 54 56 91 92 122 29 24 61 64 72 87
28 56 28 129 1 156 -29 29 -47 25 -60 -16 -13 -38 -60 -74 -97 -74 -19 0 -23
6 -23 30 0 17 9 48 20 70 23 45 25 72 8 103 -27 52 -72 60 -121 23 -29 -22
-136 -56 -174 -56 -9 0 -34 20 -57 45 -40 42 -66 57 -66 36z"/>
<path d="M11006 3572 c-2 -4 -1 -14 5 -22 5 -8 9 -34 9 -57 0 -64 -19 -73
-163 -73 -88 0 -119 -3 -123 -13 -6 -17 13 -69 29 -79 22 -14 78 -8 128 13 52
23 57 23 184 -5 39 -9 95 -16 126 -16 77 0 94 -19 94 -109 l1 -66 43 -24 c64
-35 110 -33 156 8 62 54 97 64 198 57 51 -3 96 -2 107 4 11 6 20 26 24 53 4
25 13 53 21 63 32 42 25 43 -192 41 -202 -2 -210 -1 -281 25 -92 33 -159 77
-202 129 -44 56 -146 100 -164 71z"/>
<path d="M12727 3250 c-32 -34 -67 -80 -79 -103 -42 -80 -20 -213 39 -240 36
-16 50 5 84 123 21 72 41 119 69 158 56 78 51 107 -22 118 -31 6 -38 1 -91
-56z"/>
<path d="M12305 3219 c-16 -5 -67 -8 -112 -7 l-81 3 -60 -58 c-35 -32 -70 -57
-82 -57 -30 0 -35 -24 -15 -86 15 -47 15 -64 5 -122 -15 -89 -84 -375 -105
-431 -8 -25 -54 -97 -102 -160 -89 -118 -117 -180 -111 -242 3 -30 7 -33 53
-44 92 -21 145 -52 215 -125 45 -47 74 -70 90 -70 13 0 64 19 114 42 130 60
150 59 231 -22 59 -58 65 -62 65 -40 0 14 -11 42 -25 62 -29 43 -33 78 -8 78
9 0 48 -33 87 -74 39 -40 86 -81 103 -90 46 -23 59 -48 77 -146 12 -64 22 -90
41 -110 20 -20 29 -23 43 -14 24 16 29 184 7 260 -18 61 -96 150 -175 199 -72
44 -118 94 -172 185 -88 149 -93 153 -196 183 -50 15 -54 15 -72 -3 -23 -23
-19 -40 22 -93 17 -21 28 -41 25 -44 -8 -7 -66 13 -104 37 -28 17 -33 26 -33
57 0 100 121 174 208 129 32 -17 84 -71 136 -141 41 -55 148 -133 220 -160 81
-31 73 -7 -41 115 -38 41 -75 85 -81 97 -18 33 -14 88 9 138 27 58 62 85 108
85 73 1 214 47 224 75 3 7 -5 36 -18 64 -17 36 -30 51 -44 51 -26 0 -35 -17
-33 -55 2 -21 -5 -38 -18 -50 -20 -18 -22 -18 -83 3 -34 12 -75 22 -90 22 -37
0 -88 -22 -111 -49 -25 -27 -62 -27 -77 0 -19 36 -29 152 -19 216 5 32 24 85
40 119 31 60 31 62 24 165 -8 122 -13 128 -79 108z"/>
<path d="M9145 2768 c-101 -36 -216 -182 -269 -343 -17 -54 -25 -139 -13 -151
7 -7 106 13 127 26 8 5 6 21 -8 56 -16 45 -17 56 -5 107 31 138 88 176 168
113 32 -26 28 -42 -16 -51 -40 -9 -45 -27 -20 -68 28 -45 64 -61 98 -45 40 20
84 81 90 125 4 34 1 43 -26 71 -18 17 -50 37 -72 43 -21 7 -39 14 -39 15 0 2
9 26 20 54 11 28 20 53 20 55 0 7 -22 5 -55 -7z"/>
<path d="M9586 2673 l-59 -37 65 -22 c103 -35 234 -107 343 -190 141 -107 234
-169 241 -161 13 13 -19 67 -68 117 -89 90 -418 331 -451 330 -7 0 -39 -17
-71 -37z"/>
<path d="M9430 2511 c-16 -31 -11 -112 9 -157 l18 -40 92 -12 c62 -7 119 -22
179 -47 272 -113 258 -109 307 -95 25 7 48 17 52 23 11 18 -67 80 -210 167
-186 115 -212 128 -314 156 -106 29 -119 30 -133 5z"/>
<path d="M9208 2317 c-70 -51 -133 -98 -139 -104 -8 -8 -7 -34 4 -99 15 -85
15 -92 -5 -144 -35 -96 -34 -99 18 -160 70 -82 89 -141 63 -193 -17 -33 -60
-77 -92 -94 -25 -13 -31 -13 -53 2 -15 10 -24 25 -24 41 0 25 2 26 48 22 l47
-3 -1 37 c-1 24 -11 50 -28 73 -22 29 -34 35 -63 35 -85 0 -155 -159 -109
-248 20 -39 45 -58 101 -77 109 -36 236 -14 336 59 53 39 122 159 117 204 -3
29 -15 32 -90 17 -37 -7 -38 -7 -38 23 0 52 16 78 111 179 98 105 122 142 117
176 -4 29 -66 62 -99 54 -33 -8 -46 -38 -65 -150 -18 -104 -36 -155 -59 -163
-53 -21 -146 133 -115 190 11 21 10 29 -8 58 -21 35 -40 142 -26 150 5 3 40 1
77 -5 59 -9 70 -8 85 6 14 15 15 23 4 61 -11 44 -6 80 17 125 7 11 8 21 4 20
-4 0 -65 -42 -135 -92z"/>
<path d="M9500 2217 c1 -22 55 -91 85 -108 21 -13 72 -21 175 -29 79 -6 149
-12 155 -13 5 -1 10 9 10 22 0 38 -46 58 -212 95 -212 47 -213 47 -213 33z"/>
<path d="M9572 1987 c-7 -8 -16 -65 -22 -128 -13 -153 -68 -349 -113 -397 -32
-35 -88 -69 -146 -88 -28 -9 -51 -20 -51 -25 0 -12 30 -13 433 -13 228 -1 333
2 323 9 -9 6 -63 39 -122 75 -128 77 -168 115 -202 189 -22 47 -26 71 -27 146
0 50 3 115 7 146 9 63 -1 84 -43 94 -16 4 -30 1 -37 -8z"/>
<path d="M9744 1893 c-9 -50 12 -159 42 -210 43 -73 212 -178 331 -204 127
-29 70 64 -96 155 -102 56 -149 109 -172 191 -21 76 -41 105 -75 105 -19 0
-24 -7 -30 -37z"/>
<path d="M11452 1878 c3 -7 26 -24 53 -37 39 -21 66 -26 144 -29 53 -2 106 -8
119 -15 13 -6 41 -38 63 -71 37 -55 40 -65 35 -105 -3 -24 -11 -51 -18 -59
-20 -23 -110 -59 -170 -66 -66 -8 -100 5 -142 54 -40 48 -35 90 15 145 23 25
39 51 36 58 -6 17 -92 37 -187 44 -68 5 -78 3 -106 -18 -18 -13 -52 -39 -77
-58 -25 -19 -78 -47 -117 -64 -73 -30 -107 -64 -96 -93 5 -12 14 -15 39 -10
94 18 107 18 156 1 67 -22 106 -56 138 -119 21 -42 24 -55 15 -78 -7 -20 -7
-30 1 -35 17 -11 320 -15 392 -6 l60 8 -3 36 c-3 29 1 40 20 53 56 39 106 -1
94 -75 l-7 -41 68 6 c37 3 167 15 288 26 121 11 240 21 264 22 52 3 73 26 50
54 -12 15 -30 16 -173 11 -142 -5 -168 -4 -235 15 -42 11 -88 27 -103 36 -39
23 -66 79 -88 184 -11 51 -23 103 -25 116 -9 37 -133 91 -247 108 -120 18
-261 19 -256 2z"/>
<path d="M12155 1818 c-19 -17 -32 -47 -50 -115 -24 -92 -23 -120 2 -159 24
-38 44 -42 289 -61 45 -3 93 -3 106 0 53 14 67 128 23 188 -33 45 -65 69 -91
69 -27 0 -34 -17 -34 -87 l0 -55 -60 4 c-70 5 -100 26 -100 72 0 17 9 45 20
61 26 39 25 57 -3 83 -30 28 -69 28 -102 0z"/>
<path d="M10535 1582 c-22 -14 -80 -56 -130 -92 -122 -88 -139 -99 -199 -121
l-51 -18 75 5 c147 10 159 13 175 44 13 25 42 50 59 50 3 0 6 -24 8 -52 l3
-53 67 3 c37 2 108 -2 158 -8 103 -13 117 -8 122 42 4 45 23 45 52 0 21 -34
31 -40 68 -44 60 -6 298 3 298 12 0 4 -17 14 -37 23 -21 9 -55 30 -75 48 -34
29 -46 33 -130 40 -118 10 -232 46 -328 104 -41 24 -79 44 -85 44 -5 0 -28
-12 -50 -27z"/>
</g>
</svg>
